<svg xmlns="http://www.w3.org/2000/svg" width="1350" height="380" viewBox="0 0 1350 380"><rect width="100%" height="100%" fill="#fff"/><g font-family="Arial,sans-serif" fill="#272b34"><text x="20" y="24" font-size="15">B / OBJECT · D1 STORYBOARD · static keyframes</text><g transform="translate(20,45)"><rect width="165" height="275" rx="4" fill="#f6f2e9" stroke="#aab7be"/><text x="10" y="24" font-size="11">Север / Выпуск</text><path d="M12 55h110M12 69h90M12 83h115M12 215h105" stroke="#aab7be"/><rect x="10" y="105" width="145" height="62" rx="4" fill="white" stroke="#304cad"/><text x="19" y="127" font-size="10">wo-17 / v1</text><path d="M14 110v52" stroke="#272b34" stroke-width="4"/><text x="0" y="302" font-size="11">01 / CHAT</text></g><g transform="translate(210,45)"><rect width="165" height="275" rx="4" fill="#f6f2e9" stroke="#aab7be"/><text x="10" y="24" font-size="11">Север / Выпуск</text><path d="M12 55h110M12 69h90M12 83h115M12 215h105" stroke="#aab7be"/><rect x="10" y="105" width="145" height="62" rx="4" fill="white" stroke="#304cad"/><text x="19" y="127" font-size="10">wo-17 / v1</text><path d="M14 110v52" stroke="#272b34" stroke-width="4"/><text x="0" y="302" font-size="11">02 / OBJECT</text></g><g transform="translate(400,45)"><rect width="165" height="275" rx="4" fill="#f6f2e9" stroke="#aab7be"/><text x="10" y="24" font-size="11">Север / Выпуск</text><path d="M12 55h110M12 69h90M12 83h115M12 215h105" stroke="#aab7be"/><rect x="10" y="77" width="145" height="115" rx="4" fill="white" stroke="#304cad"/><text x="19" y="99" font-size="10">wo-17 / v1</text><path d="M6 105h153" stroke="#304cad" stroke-dasharray="3 3"/><text x="12" y="255" font-size="10">source anchor сохранён</text><path d="M14 82v105" stroke="#272b34" stroke-width="4"/><text x="0" y="302" font-size="11">03 / EXPAND</text></g><g transform="translate(590,45)"><rect width="165" height="275" rx="4" fill="#f6f2e9" stroke="#aab7be"/><text x="10" y="24" font-size="11">Север / Выпуск</text><path d="M12 55h110M12 69h90M12 83h115M12 215h105" stroke="#aab7be"/><rect x="10" y="55" width="145" height="180" rx="4" fill="white" stroke="#304cad"/><text x="19" y="77" font-size="10">wo-17 / v1</text><path d="M6 105h153" stroke="#304cad" stroke-dasharray="3 3"/><text x="12" y="255" font-size="10">source anchor сохранён</text><path d="M25 108h100M25 122h95M25 136h105" stroke="#272b34"/><text x="25" y="180" font-size="10">independent scroll ↕</text><text x="120" y="75" font-size="10">Close</text><path d="M14 60v170" stroke="#272b34" stroke-width="4"/><text x="0" y="302" font-size="11">04 / WORKSPACE</text></g><g transform="translate(780,45)"><rect width="165" height="275" rx="4" fill="#f6f2e9" stroke="#aab7be"/><text x="10" y="24" font-size="11">Север / Выпуск</text><path d="M12 55h110M12 69h90M12 83h115M12 215h105" stroke="#aab7be"/><rect x="10" y="36" width="145" height="225" rx="4" fill="white" stroke="#304cad"/><text x="19" y="58" font-size="10">wo-17 / v1</text><path d="M25 108h100M25 122h95M25 136h105" stroke="#272b34"/><text x="25" y="180" font-size="10">independent scroll ↕</text><text x="120" y="56" font-size="10">Close</text><path d="M14 41v215" stroke="#272b34" stroke-width="4"/><text x="0" y="302" font-size="11">05 / FULLSCREEN</text></g><g transform="translate(970,45)"><rect width="165" height="275" rx="4" fill="#f6f2e9" stroke="#aab7be"/><text x="10" y="24" font-size="11">Север / Выпуск</text><path d="M12 55h110M12 69h90M12 83h115M12 215h105" stroke="#aab7be"/><rect x="10" y="90" width="145" height="95" rx="4" fill="white" stroke="#304cad"/><text x="19" y="112" font-size="10">wo-17 / v2</text><path d="M6 105h153" stroke="#304cad" stroke-dasharray="3 3"/><text x="12" y="255" font-size="10">source anchor сохранён</text><path d="M14 95v85" stroke="#272b34" stroke-width="4"/><text x="0" y="302" font-size="11">06 / COLLAPSE</text></g><g transform="translate(1160,45)"><rect width="165" height="275" rx="4" fill="#f6f2e9" stroke="#aab7be"/><text x="10" y="24" font-size="11">Север / Выпуск</text><path d="M12 55h110M12 69h90M12 83h115M12 215h105" stroke="#aab7be"/><rect x="10" y="105" width="145" height="62" rx="4" fill="white" stroke="#304cad"/><text x="19" y="127" font-size="10">wo-17 / v2</text><path d="M14 110v52" stroke="#272b34" stroke-width="4"/><rect x="10" y="225" width="145" height="35" rx="6" fill="#f6f2e9" stroke="#304cad"/><text x="19" y="247" font-size="10">draft d-17 / caret</text><text x="0" y="302" font-size="11">07 / EXACT RETURN</text></g></g></svg>